<?xml version="1.0" encoding="UTF-8"?>
<svg xmlns="http://www.w3.org/2000/svg" version="1.1" viewBox="0 0 16 16">
  <defs>
    <style>
      .cls-1 {
        fill: #fff;
      }
    </style>
  </defs>
  <!-- Generator: Adobe Illustrator 28.7.1, SVG Export Plug-In . SVG Version: 1.2.0 Build 142)  -->
  <g>
    <g id="Layer_1">
      <path class="cls-1" d="M6.7,3.5c.2,0,.3.3.3.5v8c0,.3-.2.5-.5.5-.1,0-.2,0-.3-.1l-2.4-1.9H1.5c-.3,0-.5-.2-.5-.5v-4c0-.3.2-.5.5-.5h2.3l2.4-1.9c.2-.1.4-.1.5,0M13.9,5.6c.2.2.2.5,0,.7,0,0,0,0,0,0l-1.6,1.6,1.6,1.6c.2.2.2.5,0,.7s-.5.2-.7,0l-1.6-1.6-1.6,1.6c-.2.2-.5.2-.7,0s-.2-.5,0-.7l1.6-1.6-1.6-1.6c-.2-.2-.2-.5,0-.7s.5-.2.7,0h0l1.6,1.6,1.6-1.6c.2-.2.5-.2.7,0,0,0,0,0,0,0"/>
    </g>
  </g>
</svg>