<svg width="89" height="89" viewBox="0 0 89 89" fill="none" xmlns="http://www.w3.org/2000/svg">
<path d="M50.0625 22.2499C50.0618 21.7266 49.9134 21.2141 49.6344 20.7713C49.3554 20.3285 48.9571 19.9734 48.4854 19.7468C48.0136 19.5203 47.4875 19.4314 46.9675 19.4904C46.4475 19.5494 45.9547 19.754 45.5457 20.0806L32.4016 30.5937H19.4688C18.7311 30.5937 18.0237 30.8867 17.5021 31.4083C16.9805 31.9299 16.6875 32.6373 16.6875 33.3749V55.6249C16.6875 56.3626 16.9805 57.07 17.5021 57.5916C18.0237 58.1132 18.7311 58.4062 19.4688 58.4062H32.4016L45.5457 68.9193C45.9547 69.2459 46.4475 69.4504 46.9675 69.5095C47.4875 69.5685 48.0136 69.4796 48.4854 69.2531C48.9571 69.0265 49.3554 68.6714 49.6344 68.2286C49.9134 67.7858 50.0618 67.2733 50.0625 66.7499V22.2499ZM66.8891 44.4999C66.8891 47.7871 66.2417 51.0421 64.9837 54.079C63.7258 57.116 61.882 59.8754 59.5577 62.1998L55.625 58.2671C57.4328 56.4592 58.8668 54.3128 59.8451 51.9506C60.8233 49.5884 61.3267 47.0567 61.3266 44.4999C61.3267 41.9432 60.8233 39.4115 59.8451 37.0493C58.8668 34.6871 57.4328 32.5407 55.625 30.7328L59.5577 26.8001C61.882 29.1245 63.7258 31.8839 64.9837 34.9209C66.2417 37.9578 66.8891 41.2128 66.8891 44.4999Z" fill="white"/>
</svg>
