<svg width="50" height="50" viewBox="0 0 50 50" fill="none" xmlns="http://www.w3.org/2000/svg">
<g clip-path="url(#clip0_35_93)">
<path d="M22.0871 2.27173C22.8465 -0.759522 27.1496 -0.759522 27.9121 2.27173L28.134 3.16548C28.2638 3.68488 28.5303 4.16007 28.9057 4.54175C29.2811 4.92343 29.7518 5.1977 30.269 5.33608C30.7862 5.47446 31.331 5.47192 31.8469 5.32873C32.3627 5.18553 32.8309 4.90689 33.2027 4.52173L33.8434 3.86235C36.0152 1.61548 39.7434 3.7686 38.884 6.77173L38.634 7.65923C38.4868 8.17376 38.4799 8.71829 38.6141 9.23636C38.7483 9.75443 39.0186 10.2272 39.397 10.6056C39.7754 10.984 40.2482 11.2543 40.7662 11.3885C41.2843 11.5226 41.8288 11.5158 42.3434 11.3686L43.2277 11.1155C46.2277 10.2561 48.384 13.9842 46.1371 16.1561L45.4777 16.7967C45.0926 17.1686 44.8139 17.6367 44.6707 18.1526C44.5275 18.6685 44.525 19.2133 44.6634 19.7304C44.8018 20.2476 45.076 20.7184 45.4577 21.0938C45.8394 21.4692 46.3146 21.7357 46.834 21.8655L47.7277 22.0874C50.759 22.8467 50.759 27.1499 47.7277 27.9124L46.834 28.1342C46.3146 28.264 45.8394 28.5305 45.4577 28.9059C45.076 29.2814 44.8018 29.7521 44.6634 30.2693C44.525 30.7864 44.5275 31.3312 44.6707 31.8471C44.8139 32.363 45.0926 32.8311 45.4777 33.203L46.1371 33.8436C48.384 36.0155 46.2309 39.7436 43.2277 38.8842L42.3402 38.6342C41.8257 38.487 41.2812 38.4802 40.7631 38.6143C40.245 38.7485 39.7723 39.0188 39.3939 39.3972C39.0154 39.7756 38.7451 40.2484 38.611 40.7665C38.4768 41.2845 38.4837 41.8291 38.6309 42.3436L38.884 43.228C39.7434 46.228 36.0152 48.3842 33.8434 46.1374L33.2027 45.478C32.8309 45.0928 32.3627 44.8142 31.8469 44.671C31.331 44.5278 30.7862 44.5252 30.269 44.6636C29.7518 44.802 29.2811 45.0763 28.9057 45.458C28.5303 45.8396 28.2638 46.3148 28.134 46.8342L27.9121 47.728C27.1527 50.7592 22.8496 50.7592 22.0871 47.728L21.8652 46.8342C21.7354 46.3148 21.469 45.8396 21.0935 45.458C20.7181 45.0763 20.2474 44.802 19.7302 44.6636C19.213 44.5252 18.6682 44.5278 18.1524 44.671C17.6365 44.8142 17.1683 45.0928 16.7965 45.478L16.1559 46.1374C13.984 48.3842 10.2559 46.2311 11.1152 43.228L11.3652 42.3405C11.5121 41.8263 11.5189 41.2821 11.3849 40.7644C11.2508 40.2467 10.9808 39.7743 10.6029 39.396C10.2249 39.0177 9.75263 38.7473 9.23504 38.6128C8.71745 38.4783 8.17331 38.4846 7.65898 38.6311L6.77148 38.8842C3.77148 39.7436 1.61523 36.0155 3.86211 33.8436L4.52148 33.203C4.90665 32.8311 5.18529 32.363 5.32848 31.8471C5.47168 31.3312 5.47422 30.7864 5.33583 30.2693C5.19745 29.7521 4.92319 29.2814 4.54151 28.9059C4.15983 28.5305 3.68463 28.264 3.16523 28.1342L2.27148 27.9124C-0.759766 27.153 -0.759766 22.8499 2.27148 22.0874L3.16523 21.8655C3.68463 21.7357 4.15983 21.4692 4.54151 21.0938C4.92319 20.7184 5.19745 20.2476 5.33583 19.7304C5.47422 19.2133 5.47168 18.6685 5.32848 18.1526C5.18529 17.6367 4.90665 17.1686 4.52148 16.7967L3.86211 16.1561C1.61523 13.9842 3.76836 10.2561 6.77148 11.1155L7.65898 11.3655C8.17319 11.5124 8.71732 11.5192 9.23502 11.3851C9.75273 11.2511 10.2252 10.9811 10.6035 10.6031C10.9818 10.2251 11.2522 9.75288 11.3867 9.23528C11.5211 8.71769 11.5148 8.17356 11.3684 7.65923L11.1152 6.77173C10.2559 3.77173 13.984 1.61548 16.1559 3.86235L16.7965 4.52173C17.1683 4.90689 17.6365 5.18553 18.1524 5.32873C18.6682 5.47192 19.213 5.47446 19.7302 5.33608C20.2474 5.1977 20.7181 4.92343 21.0935 4.54175C21.469 4.16007 21.7354 3.68488 21.8652 3.16548L22.0871 2.27173ZM40.5402 26.5624H25.7809L16.9246 38.3717C19.1805 39.7342 21.7444 40.5038 24.3777 40.6087C27.0111 40.7136 29.6281 40.1505 31.9852 38.9718C34.3424 37.7931 36.3629 36.0371 37.8587 33.8673C39.3545 31.6976 40.277 29.1846 40.5402 26.5624ZM40.5402 23.4374C40.277 20.8151 39.3545 18.3021 37.8587 16.1324C36.3629 13.9626 34.3424 12.2066 31.9852 11.0279C29.6281 9.84917 27.0111 9.28606 24.3777 9.39098C21.7444 9.49591 19.1805 10.2655 16.9246 11.628L25.7809 23.4405L40.5402 23.4374ZM14.4277 13.5061C12.8345 14.9665 11.5629 16.7427 10.694 18.7215C9.8251 20.7004 9.37788 22.8386 9.38086 24.9999C9.38086 29.5467 11.3246 33.6405 14.4277 36.4936L23.0465 24.9999L14.4277 13.5061Z" fill="white"/>
</g>
<defs>
<clipPath id="clip0_35_93">
<rect width="50" height="50" fill="white"/>
</clipPath>
</defs>
</svg>
