<?xml version="1.0" encoding="UTF-8"?>
<svg xmlns="http://www.w3.org/2000/svg" version="1.1" viewBox="0 0 16 16">
  <defs>
    <style>
      .cls-1 {
        fill: #fff;
      }
    </style>
  </defs>
  <!-- Generator: Adobe Illustrator 28.7.1, SVG Export Plug-In . SVG Version: 1.2.0 Build 142)  -->
  <g>
    <g id="Layer_1">
      <path class="cls-1" d="M11.5,14c1.6-1.6,2.5-3.8,2.5-6,0-2.3-.9-4.4-2.5-6l-.7.7c1.4,1.4,2.2,3.3,2.2,5.3,0,2.1-.8,3.9-2.2,5.3l.7.7Z"/>
      <path class="cls-1" d="M10.1,12.6c1.2-1.2,1.9-2.9,1.9-4.6,0-1.7-.7-3.4-1.9-4.6l-.7.7c1,1,1.6,2.4,1.6,3.9,0,1.5-.6,2.9-1.6,3.9l.7.7Z"/>
      <path class="cls-1" d="M8.7,11.2c.8-.8,1.3-2,1.3-3.2,0-1.2-.5-2.3-1.3-3.2l-.7.7c.7.7,1,1.5,1,2.5,0,.9-.4,1.8-1,2.5l.7.7ZM6.7,3.5c.2,0,.3.3.3.5v8c0,.3-.2.5-.5.5-.1,0-.2,0-.3-.1l-2.4-1.9H1.5c-.3,0-.5-.2-.5-.5v-4c0-.3.2-.5.5-.5h2.3l2.4-1.9c.2-.1.4-.1.5,0"/>
    </g>
  </g>
</svg>